<svg xmlns="http://www.w3.org/2000/svg"><symbol id="warning" viewBox="0 0 256 256"><path d="M128 65.52l79 144.9H49zm0-38.25L18.11 228.73h219.78zm-9.16 82.41h18.32v54.95h-18.32zM128 199a11.45 11.45 0 1 1 11.45-11.45A11.46 11.46 0 0 1 128 199z"/></symbol><symbol id="power" viewBox="0 0 256 256"><path d="M143.6 128h-31.2V34.42h31.2zm32.85-79.9L167 60.57a78 78 0 1 1-78 0L79.55 48.1a93.58 93.58 0 1 0 96.9 0z"/></symbol><symbol id="tel" viewBox="0 0 256 256"><path d="M57.4 38.36l23.88-11.09L115.2 93.5l-22.88 11.26c-4.51 10.56 18.13 52.79 27.68 53.49.76-.49 22.42-11.15 22.42-11.15l34.5 66.58s-23.2 11.37-23.92 11.72C87 255.55-7.38 72.14 57.4 38.36zm16.2 10.7L65 53.29c-44.44 23.19 35.06 177.84 81 156.86l8.15-4-19.07-36.79-8.61 4.19c-26.55 13-69.35-69-42.43-83.42L92.5 86zm65.75 64.21l24.49 7.3a25.56 25.56 0 0 0-17.2-31.78zm15.14-50.86a53.06 53.06 0 0 1 35.71 66l-15.06-4.49A37.37 37.37 0 0 0 150 77.48zm8-26.75A81 81 0 0 1 217 136.39l-15.45-4.6a64.83 64.83 0 0 0-43.64-80.67z"/></symbol><symbol id="stop" viewBox="0 0 256 256"><path d="M130.1 53.22v71.67c0 3.22 5.77 3.29 5.77 0V64.71c0-11.4 20.11-11.75 20.11 0v68.2c0 4.2 4.12 4.81 5.67 1.65s7.62-16.57 7.7-16.71c6.17-12.93 26.8-5.08 20.39 10.15-1.6 4.13-21.36 49-26.39 60.26-5.28 11.85-15.59 23.68-34.64 23.68H95.64c-20 0-30.6-11.89-30.6-32.69V88.49c0-12 16.59-11.44 16.59-.56v39.8c0 3.28 6 3.27 6 0V63.78c0-12.38 18.53-12 18.53 0v60.38c0 3.33 5.58 3.17 5.58-.07V53.22c0-12.04 18.36-12.4 18.36 0zM121 27.27A25.92 25.92 0 0 0 99.78 38a25.73 25.73 0 0 0-28.92 24.93c-13 1.21-22.61 11.78-22.61 25.56v90.76c0 30.52 18.16 49.48 47.39 49.48h33.07c22.55 0 40.29-11.94 50-33.62 3.67-8.24 24.12-54.54 26.61-60.78 3.9-9.39 3.13-19.28-2.1-27.17a28.74 28.74 0 0 0-30.42-11.83V64.7c0-16.07-13.81-26.89-29.63-25.33A25.36 25.36 0 0 0 121 27.27z"/></symbol><symbol id="backward" viewBox="0 0 256 256"><path d="M136.1 128l89.07 56.68V71.32zm0-56.68v113.36L55.12 128zM30.83 79.41h24.29v97.18H30.83z"/></symbol><symbol id="pause" viewBox="0 0 256 256"><path d="M118 227.71H78.15V28.29H118zm59.85-199.42H138v199.42h39.88z"/></symbol><symbol id="forward" viewBox="0 0 256 256"><path d="M119.9 128l-89.07 56.68V71.32zm0-56.68v113.36l81-56.68zm105.27 8.09h-24.29v97.18h24.29z"/></symbol><symbol id="backward" viewBox="0 0 256 256"><path d="M136.1 128l89.07 56.68V71.32zm0-56.68v113.36L55.12 128zM30.83 79.41h24.29v97.18H30.83z"/></symbol><symbol id="pause" viewBox="0 0 256 256"><path d="M118 227.71H78.15V28.29H118zm59.85-199.42H138v199.42h39.88z"/></symbol><symbol id="forward" viewBox="0 0 256 256"><path d="M119.9 128l-89.07 56.68V71.32zm0-56.68v113.36l81-56.68zm105.27 8.09h-24.29v97.18h24.29z"/></symbol><symbol id="power" viewBox="0 0 256 256"><path d="M143.6 128h-31.2V34.42h31.2zm32.85-79.9L167 60.57a78 78 0 1 1-78 0L79.55 48.1a93.58 93.58 0 1 0 96.9 0z"/></symbol><symbol id="stop" viewBox="0 0 256 256"><path d="M130.1 53.22v71.67c0 3.22 5.77 3.29 5.77 0V64.71c0-11.4 20.11-11.75 20.11 0v68.2c0 4.2 4.12 4.81 5.67 1.65s7.62-16.57 7.7-16.71c6.17-12.93 26.8-5.08 20.39 10.15-1.6 4.13-21.36 49-26.39 60.26-5.28 11.85-15.59 23.68-34.64 23.68H95.64c-20 0-30.6-11.89-30.6-32.69V88.49c0-12 16.59-11.44 16.59-.56v39.8c0 3.28 6 3.27 6 0V63.78c0-12.38 18.53-12 18.53 0v60.38c0 3.33 5.58 3.17 5.58-.07V53.22c0-12.04 18.36-12.4 18.36 0zM121 27.27A25.92 25.92 0 0 0 99.78 38a25.73 25.73 0 0 0-28.92 24.93c-13 1.21-22.61 11.78-22.61 25.56v90.76c0 30.52 18.16 49.48 47.39 49.48h33.07c22.55 0 40.29-11.94 50-33.62 3.67-8.24 24.12-54.54 26.61-60.78 3.9-9.39 3.13-19.28-2.1-27.17a28.74 28.74 0 0 0-30.42-11.83V64.7c0-16.07-13.81-26.89-29.63-25.33A25.36 25.36 0 0 0 121 27.27z"/></symbol><symbol id="warning" viewBox="0 0 256 256"><path d="M128 65.52l79 144.9H49zm0-38.25L18.11 228.73h219.78zm-9.16 82.41h18.32v54.95h-18.32zM128 199a11.45 11.45 0 1 1 11.45-11.45A11.46 11.46 0 0 1 128 199z"/></symbol><symbol id="tel" viewBox="0 0 256 256"><path d="M57.4 38.36l23.88-11.09L115.2 93.5l-22.88 11.26c-4.51 10.56 18.13 52.79 27.68 53.49.76-.49 22.42-11.15 22.42-11.15l34.5 66.58s-23.2 11.37-23.92 11.72C87 255.55-7.38 72.14 57.4 38.36zm16.2 10.7L65 53.29c-44.44 23.19 35.06 177.84 81 156.86l8.15-4-19.07-36.79-8.61 4.19c-26.55 13-69.35-69-42.43-83.42L92.5 86zm65.75 64.21l24.49 7.3a25.56 25.56 0 0 0-17.2-31.78zm15.14-50.86a53.06 53.06 0 0 1 35.71 66l-15.06-4.49A37.37 37.37 0 0 0 150 77.48zm8-26.75A81 81 0 0 1 217 136.39l-15.45-4.6a64.83 64.83 0 0 0-43.64-80.67z"/></symbol><symbol id="backward" viewBox="0 0 256 256"><path d="M136.1 128l89.07 56.68V71.32zm0-56.68v113.36L55.12 128zM30.83 79.41h24.29v97.18H30.83z"/></symbol><symbol id="forward" viewBox="0 0 256 256"><path d="M119.9 128l-89.07 56.68V71.32zm0-56.68v113.36l81-56.68zm105.27 8.09h-24.29v97.18h24.29z"/></symbol><symbol id="pause" viewBox="0 0 256 256"><path d="M118 227.71H78.15V28.29H118zm59.85-199.42H138v199.42h39.88z"/></symbol><symbol id="power" viewBox="0 0 256 256"><path d="M143.6 128h-31.2V34.42h31.2zm32.85-79.9L167 60.57a78 78 0 1 1-78 0L79.55 48.1a93.58 93.58 0 1 0 96.9 0z"/></symbol><symbol id="stop" viewBox="0 0 256 256"><path d="M130.1 53.22v71.67c0 3.22 5.77 3.29 5.77 0V64.71c0-11.4 20.11-11.75 20.11 0v68.2c0 4.2 4.12 4.81 5.67 1.65s7.62-16.57 7.7-16.71c6.17-12.93 26.8-5.08 20.39 10.15-1.6 4.13-21.36 49-26.39 60.26-5.28 11.85-15.59 23.68-34.64 23.68H95.64c-20 0-30.6-11.89-30.6-32.69V88.49c0-12 16.59-11.44 16.59-.56v39.8c0 3.28 6 3.27 6 0V63.78c0-12.38 18.53-12 18.53 0v60.38c0 3.33 5.58 3.17 5.58-.07V53.22c0-12.04 18.36-12.4 18.36 0zM121 27.27A25.92 25.92 0 0 0 99.78 38a25.73 25.73 0 0 0-28.92 24.93c-13 1.21-22.61 11.78-22.61 25.56v90.76c0 30.52 18.16 49.48 47.39 49.48h33.07c22.55 0 40.29-11.94 50-33.62 3.67-8.24 24.12-54.54 26.61-60.78 3.9-9.39 3.13-19.28-2.1-27.17a28.74 28.74 0 0 0-30.42-11.83V64.7c0-16.07-13.81-26.89-29.63-25.33A25.36 25.36 0 0 0 121 27.27z"/></symbol><symbol id="tel" viewBox="0 0 256 256"><path d="M57.4 38.36l23.88-11.09L115.2 93.5l-22.88 11.26c-4.51 10.56 18.13 52.79 27.68 53.49.76-.49 22.42-11.15 22.42-11.15l34.5 66.58s-23.2 11.37-23.92 11.72C87 255.55-7.38 72.14 57.4 38.36zm16.2 10.7L65 53.29c-44.44 23.19 35.06 177.84 81 156.86l8.15-4-19.07-36.79-8.61 4.19c-26.55 13-69.35-69-42.43-83.42L92.5 86zm65.75 64.21l24.49 7.3a25.56 25.56 0 0 0-17.2-31.78zm15.14-50.86a53.06 53.06 0 0 1 35.71 66l-15.06-4.49A37.37 37.37 0 0 0 150 77.48zm8-26.75A81 81 0 0 1 217 136.39l-15.45-4.6a64.83 64.83 0 0 0-43.64-80.67z"/></symbol><symbol id="warning" viewBox="0 0 256 256"><path d="M128 65.52l79 144.9H49zm0-38.25L18.11 228.73h219.78zm-9.16 82.41h18.32v54.95h-18.32zM128 199a11.45 11.45 0 1 1 11.45-11.45A11.46 11.46 0 0 1 128 199z"/></symbol><symbol id="backward" viewBox="0 0 256 256"><path d="M136.1 128l89.07 56.68V71.32zm0-56.68v113.36L55.12 128zM30.83 79.41h24.29v97.18H30.83z"/></symbol><symbol id="forward" viewBox="0 0 256 256"><path d="M119.9 128l-89.07 56.68V71.32zm0-56.68v113.36l81-56.68zm105.27 8.09h-24.29v97.18h24.29z"/></symbol><symbol id="pause" viewBox="0 0 256 256"><path d="M118 227.71H78.15V28.29H118zm59.85-199.42H138v199.42h39.88z"/></symbol><symbol id="power" viewBox="0 0 256 256"><path d="M143.6 128h-31.2V34.42h31.2zm32.85-79.9L167 60.57a78 78 0 1 1-78 0L79.55 48.1a93.58 93.58 0 1 0 96.9 0z"/></symbol><symbol id="stop" viewBox="0 0 256 256"><path d="M130.1 53.22v71.67c0 3.22 5.77 3.29 5.77 0V64.71c0-11.4 20.11-11.75 20.11 0v68.2c0 4.2 4.12 4.81 5.67 1.65s7.62-16.57 7.7-16.71c6.17-12.93 26.8-5.08 20.39 10.15-1.6 4.13-21.36 49-26.39 60.26-5.28 11.85-15.59 23.68-34.64 23.68H95.64c-20 0-30.6-11.89-30.6-32.69V88.49c0-12 16.59-11.44 16.59-.56v39.8c0 3.28 6 3.27 6 0V63.78c0-12.38 18.53-12 18.53 0v60.38c0 3.33 5.58 3.17 5.58-.07V53.22c0-12.04 18.36-12.4 18.36 0zM121 27.27A25.92 25.92 0 0 0 99.78 38a25.73 25.73 0 0 0-28.92 24.93c-13 1.21-22.61 11.78-22.61 25.56v90.76c0 30.52 18.16 49.48 47.39 49.48h33.07c22.55 0 40.29-11.94 50-33.62 3.67-8.24 24.12-54.54 26.61-60.78 3.9-9.39 3.13-19.28-2.1-27.17a28.74 28.74 0 0 0-30.42-11.83V64.7c0-16.07-13.81-26.89-29.63-25.33A25.36 25.36 0 0 0 121 27.27z"/></symbol><symbol id="tel" viewBox="0 0 256 256"><path d="M57.4 38.36l23.88-11.09L115.2 93.5l-22.88 11.26c-4.51 10.56 18.13 52.79 27.68 53.49.76-.49 22.42-11.15 22.42-11.15l34.5 66.58s-23.2 11.37-23.92 11.72C87 255.55-7.38 72.14 57.4 38.36zm16.2 10.7L65 53.29c-44.44 23.19 35.06 177.84 81 156.86l8.15-4-19.07-36.79-8.61 4.19c-26.55 13-69.35-69-42.43-83.42L92.5 86zm65.75 64.21l24.49 7.3a25.56 25.56 0 0 0-17.2-31.78zm15.14-50.86a53.06 53.06 0 0 1 35.71 66l-15.06-4.49A37.37 37.37 0 0 0 150 77.48zm8-26.75A81 81 0 0 1 217 136.39l-15.45-4.6a64.83 64.83 0 0 0-43.64-80.67z"/></symbol><symbol id="warning" viewBox="0 0 256 256"><path d="M128 65.52l79 144.9H49zm0-38.25L18.11 228.73h219.78zm-9.16 82.41h18.32v54.95h-18.32zM128 199a11.45 11.45 0 1 1 11.45-11.45A11.46 11.46 0 0 1 128 199z"/></symbol></svg>