<svg id="island-map" xmlns="http://www.w3.org/2000/svg" viewBox="0 0 2000 2000"><defs><style>.cls-1{fill:none;stroke:#89d4e5;stroke-miterlimit:10;stroke-width:10px;}.cls-2{fill:#89d4e5;}.cls-3{fill:#fdd31b;}.cls-4{fill:#ee3354;}</style></defs><title>island-map</title><g id="terrain"><path class="cls-1" d="M416.51,351.2c-8.7,3.78-17.7,8.24-22.9,16.17-12.65,19.24,3.94,44.27,21.46,59.21s39,31.84,37.34,54.8C450.5,507.75,417.71,527,422.78,553c3.37,17.29,21.77,26.41,37.27,34.81A243.65,243.65,0,0,1,571.12,715.42c3.52,9.41,6.49,19.54,4.49,29.39-2.62,12.87-13,22.5-22.9,31.18C483.91,836.61,408,900.34,316.49,906.56c-40.63,2.77-93.45.58-108.14,38.55-4.34,11.23-3.78,23.66-5.24,35.62-4.57,37.35-28.57,68.87-47.49,101.4-46.48,79.87-64.86,175.73-51.24,267.13,4,26.73,10.62,53.18,11.48,80.19,1.84,57.58-22.62,113.61-20.66,171.19s51,122,106,104.95c30.85-9.59,50.8-41.49,81.68-50.95,16.4-5,34-3.11,51.06-1.15,58.22,6.72,117.31,13.65,171.51,36,55.14,22.7,102.71,60.28,155.09,88.78,132.82,72.25,289.72,83,440.91,84.24,100.25.85,202.53-2.11,297.06-35.5S1580,1724.9,1612,1629.9c4.25-12.6,7.49-26.41,3.34-39-4.07-12.37-14.49-21.42-24.61-29.61a965.94,965.94,0,0,0-96.49-68.73c-23.67-14.75-50.57-32.22-54.18-59.87-2.53-19.4,7.59-38.07,18.58-54.25a387.81,387.81,0,0,1,145.13-127.61c77.77-39.32,171.17-54,231.91-116.45,49.48-50.9,67.57-125.15,69.16-196.12s-11.19-141.47-14-212.4c-1.44-36.3-.32-73.16-9.52-108.3-24.52-93.69-114.9-153.39-202.06-195.61S1496.47,342.28,1439,264.35c-16.62-22.53-29.65-48.05-50-67.24-34.58-32.53-84.64-41.81-132-45.88-60.43-5.21-122.51-4.11-180,15.1S966.58,224.78,941.38,280c-12.43,27.2-21.06,61-48.7,72.41-27.93,11.56-59.07-7.21-80.42-28.62s-41-47.55-70.1-55.66-67.82,17.8-56.94,46c1.81,4.67,4.86,9.35,3.9,14.26s-9.34,7.34-10.55,2.48C678.57,330.84,501.69,314.2,416.51,351.2Z"/><path class="cls-1" d="M1361.19,256.47C1304.06,215.28,1232.52,194,1162.27,199S1023.7,235.88,976,287.66c-24.4,26.47-43.73,58-72.37,79.83-22.58,17.18-50.89,28.35-66.73,51.88-26.79,39.8-5.94,92.53-.73,140.21A205.7,205.7,0,0,1,808,687.1c-26.08,43.21-68,76.51-87.21,123.18-8,19.54-11.54,42.4-2.48,61.48,5.77,12.16,16,21.55,26.4,30.1a425.18,425.18,0,0,0,137.46,75.59c83.49,27.36,177.35,29.69,249.74,79.5,45.85,31.55,78.31,79.29,122.66,112.93,60.35,45.79,139.2,62.14,214.86,58.35s149.11-26.2,220.51-51.54c26.7-9.49,53.89-19.77,75.33-38.29,27.15-23.45,42.26-57.55,56.36-90.54,25.51-59.67,51-122.86,43.76-187.35-4.2-37.31-19.19-72.43-34-106.93q-28.77-67-57.53-134c-11.09-25.83-22.52-52.19-41.51-72.92-38-41.47-97.81-52.54-148.79-76.27-26.21-12.19-51.46-29-66.53-53.64-7.82-12.82-12.59-27.27-19.85-40.41-10.57-19.12-26.15-35-42.68-49.28C1421.53,298.58,1361.19,256.47,1361.19,256.47Z"/><path class="cls-1" d="M1225.52,229.7c-81.1-.46-151.89,51.57-216,101.22-46.12,35.71-94.33,74.16-115.2,128.63-7,18.25-10.58,37.6-14.14,56.82L836.78,751.06c-1.34,7.22-2.58,15.12.93,21.57,3,5.54,8.91,8.8,14.49,11.75,40.58,21.47,81.3,43,124.33,59,50.41,18.76,106,31.15,144.4,68.79,15.62,15.31,27.44,34,40.25,51.7a525.23,525.23,0,0,0,254.28,188c83,28.26,178.22,34.08,255.35-7.5,40.43-21.8,73.71-55.51,98.93-93.9,32.4-49.31,52.06-106.62,59-165.21,4.39-37.13,3.44-76.25-12.93-109.87-12.79-26.28-34.15-47.41-56.85-65.83-96.32-78.17-221.65-115.85-313-199.78-41.7-38.32-75-85.23-101.07-135.48-18.48-35.53-33.84-73.36-59.81-103.85S1225.52,229.7,1225.52,229.7Z"/><path class="cls-1" d="M1207.87,259.39A487.49,487.49,0,0,0,985.37,374.3a219.07,219.07,0,0,0-20,20.28c-16.65,19.72-27.49,43.63-37,67.62A839.88,839.88,0,0,0,870.7,722.42c-.47,8.11-.78,16.53,2.33,24,5.79,14,21.38,20.77,35.53,26.19,23.42,9,47.08,18,71.92,21.45,50.69,7,103-9.6,153.09.77,69.41,14.36,117.35,75.57,174.2,117.91,82.78,61.65,193.21,84.59,293.69,61,44.11-10.35,89.12-31.84,110.56-71.74,11-20.45,14.81-44,15.62-67.23.36-10.19.06-20.85-4.75-29.84-5.44-10.17-15.77-16.63-25.83-22.28-68.42-38.43-145.46-61.42-209.39-106.94-103.4-73.63-159.42-196.49-197.75-317.51-7.73-24.39-15.24-49.57-30.93-69.79S1207.87,259.39,1207.87,259.39Z"/><path class="cls-1" d="M1132.25,310.12c-22.42,16.45-40,38.48-60.52,57.3-34.66,31.85-77.76,54.75-107,91.6C925.48,508.36,917,574.62,910,637.25c-3.48,31-5.53,66.39,16,88.86,18.63,19.39,48.29,21.89,75.16,23.19l228,11c27.19,1.31,57.56,1.54,77.62-16.88,15.49-14.24,20.77-36.14,25.29-56.69,3.57-16.23,7.07-33.58,1.08-49.08-5.38-13.92-17.49-23.88-27.49-35-41.36-45.87-47.58-113.92-39-175.08,2.7-19.13,6.48-39.42-1.24-57.12-4.42-10.11-12.2-18.31-19.83-26.28-20.2-21.09-30.14-65.94-60.6-63.28S1154.67,293.68,1132.25,310.12Z"/><path class="cls-1" d="M1103.27,371.71c-13.79,21.25-22,45.52-33.06,68.34-30.06,62.27-81.16,114.78-98.35,181.75-2.81,11-4.44,23.34,1.57,32.9,6.14,9.76,18.28,13.56,29.44,16.44a996.66,996.66,0,0,0,189,29.73c15.93,1,35.35-.35,42.76-14.48,4.6-8.79,2.6-19.41,3.6-29.27,1-10.24,5.41-19.86,6.93-30,3.29-21.9-6.73-43.26-13.63-64.3a238.4,238.4,0,0,1-7-121.52c3.4-16.6,8.6-33,9.11-49.94s-4.57-35.18-18-45.54C1195.06,329.89,1117.06,350.46,1103.27,371.71Z"/><path class="cls-1" d="M1128.66,420.22A220.91,220.91,0,0,0,1106.07,463c-15,37.91-20,81-45.73,112.65-9.62,11.84-22.74,24.18-20.42,39.26,1.54,10.07,10.12,17.92,19.64,21.54s19.94,3.8,30.13,3.93l60.56.75c6.16.08,12.51.12,18.21-2.21,6.31-2.59,11.12-7.8,15.4-13.11,11-13.67,20-29.42,23.06-46.71,10.8-61.72-55.61-117.83-43.94-179.39C1147.84,395.76,1128.66,420.22,1128.66,420.22Z"/><path class="cls-1" d="M1133.52,504.66a93.65,93.65,0,0,0-37.56,46c-8.06,21.47-4.84,50.78,16,60.36,15,6.92,33.88,0,44.25-12.87s13.52-30.31,12.86-46.85c-.68-16.81-6.52-35.51-21.67-42.8A49.81,49.81,0,0,0,1133.52,504.66Z"/></g><polygon id="compass" class="cls-2" points="147.95 129.76 184.75 131.38 163.54 161.5 161.93 198.3 131.81 177.09 95 175.47 116.21 145.35 95 73.64 147.95 129.76"/><polygon id="hq" class="cls-3" points="1611.98 1576.33 1657.26 1582.47 1624.84 1614.67 1632.98 1659.63 1592.35 1638.75 1552.1 1660.38 1559.41 1615.28 1526.39 1583.69 1571.54 1576.7 1591.38 1535.54 1611.98 1576.33"/><path class="cls-4" d="M761.93,1383.76l-61-105.65a23.07,23.07,0,0,0-40,0l-61,105.67a23.08,23.08,0,0,0,20,34.62l122,0A23.08,23.08,0,0,0,761.93,1383.76Zm-68.52-81.1-.87,21.48-3.48,37.45H672.81l-3.49-37.45-.87-21.48Zm-12.47,99c-9.29,0-16-6.82-16-16.11s6.68-15.82,16-15.82,16,6.53,16,15.81S690.23,1401.65,680.94,1401.65Z"/></svg>