<svg xmlns="http://www.w3.org/2000/svg" width="256" height="256" viewBox="0 0 256 256"><path d="M130.1 53.22v71.67c0 3.22 5.77 3.29 5.77 0V64.71c0-11.4 20.11-11.75 20.11 0v68.2c0 4.2 4.12 4.81 5.67 1.65s7.62-16.57 7.7-16.71c6.17-12.93 26.8-5.08 20.39 10.15-1.6 4.13-21.36 49-26.39 60.26-5.28 11.85-15.59 23.68-34.64 23.68H95.64c-20 0-30.6-11.89-30.6-32.69V88.49c0-12 16.59-11.44 16.59-.56v39.8c0 3.28 6 3.27 6 0V63.78c0-12.38 18.53-12 18.53 0v60.38c0 3.33 5.58 3.17 5.58-.07V53.22c0-12.04 18.36-12.4 18.36 0zM121 27.27A25.92 25.92 0 0 0 99.78 38a25.73 25.73 0 0 0-28.92 24.93c-13 1.21-22.61 11.78-22.61 25.56v90.76c0 30.52 18.16 49.48 47.39 49.48h33.07c22.55 0 40.29-11.94 50-33.62 3.67-8.24 24.12-54.54 26.61-60.78 3.9-9.39 3.13-19.28-2.1-27.17a28.74 28.74 0 0 0-30.42-11.83V64.7c0-16.07-13.81-26.89-29.63-25.33A25.36 25.36 0 0 0 121 27.27z"/></svg>