<svg xmlns="http://www.w3.org/2000/svg" width="256" height="256" viewBox="0 0 256 256"><path d="M57.4 38.36l23.88-11.09L115.2 93.5l-22.88 11.26c-4.51 10.56 18.13 52.79 27.68 53.49.76-.49 22.42-11.15 22.42-11.15l34.5 66.58s-23.2 11.37-23.92 11.72C87 255.55-7.38 72.14 57.4 38.36zm16.2 10.7L65 53.29c-44.44 23.19 35.06 177.84 81 156.86l8.15-4-19.07-36.79-8.61 4.19c-26.55 13-69.35-69-42.43-83.42L92.5 86zm65.75 64.21l24.49 7.3a25.56 25.56 0 0 0-17.2-31.78zm15.14-50.86a53.06 53.06 0 0 1 35.71 66l-15.06-4.49A37.37 37.37 0 0 0 150 77.48zm8-26.75A81 81 0 0 1 217 136.39l-15.45-4.6a64.83 64.83 0 0 0-43.64-80.67z"/></svg>